<?xml version="1.0" encoding="UTF-8"?>
<svg id="Capa_1" data-name="Capa 1" xmlns="http://www.w3.org/2000/svg" viewBox="0 0 189 111">
  <defs>
    <style>
      .cls-1 {
        fill: #fff;
        stroke-width: 0px;
      }
    </style>
  </defs>
  <path class="cls-1" d="m.19,79.52c1.68-1.29,3.36-2.6,5.06-3.87,11.6-8.7,23-17.68,35.16-25.61,4.47-2.92,5.72-2.68,9.81.61,5.05,4.07,6.16,3.85,9.48-2,1.09-1.93,2.71-3.36,4.33-4.79,5.64-4.97,11.82-9.12,18.69-12.2,4.45-2,6.46-1.55,9.75,2.06,3.11,3.41,6.82,5.6,11.49,6.04,3.64.34,6.47,1.67,8.27,5.29,1.57,3.16,5.02,4.04,8.3,4.31,3.64.29,6.5,1.27,7.73,5.12.47,1.46,1.64,2.48,3.81,3.17-2.91-3.23-1.18-4.24,1.59-4.78.74-.15,1.47-.38,2.18-.63,6.05-2.1,10.63-1.85,15.32,4.14,7.17,9.17,17.94,14.08,28.25,19.18,3.17,1.57,6.39,3.03,9.41,4.96-14.94-2.78-28.94-8.03-41.86-16.15l-.64.78c1.28,1.11,2.58,2.2,3.85,3.33.54.48,1.52.9,1.19,1.73-.44,1.09-1.56.48-2.3.38-5.16-.72-10.17-2.07-15-4.04-4.61-1.88-9.05-4.11-13.31-7.17-.16,2.01,1.62,2.97,1.76,4.57-1.01.69-1.63-.15-2.28-.58-4-2.67-7.42-5.93-10.32-9.78-1.37-1.81-2.88-3.52-4.47-5.14-.76-.78-1.72-2.19-2.95-1.24-1.01.78-.52,2.28-.1,3.36.75,1.89,1.71,3.69,2.36,5.73-3.8-2.41-6.85-5.59-9.29-9.3-.99-1.51-1.99-2.72-3.7-3.39-1.62-.63-3.05-1.62-4.21-2.97-.85-.99-1.87-2.11-3.29-1.53-1.34.55-1.41,2.06-1.59,3.34-.59,4.2.8,7.89,2.9,11.41.65,1.1,1.28,2.21,1.71,3.59-3.6-1.12-6.42-3.51-10.07-6.44,2.03,5.67,4.66,9.91,7.69,13.86,3.08,4.01,6.8,7.47,10.62,10.59-.34.84-.75.84-1.18.7-10.65-3.45-20.52-8.21-27.85-17.05-1.52-1.83-2.91-1.38-4.51-.38-1.8,1.13-1.3,2.5-.38,3.88,1,1.5,2.05,2.97,2.82,4.8-4.25-.72-7.72-2.91-10.97-5.49-1.69-1.35-3.24-2.88-4.96-4.19-3.67-2.8-5.68-2.65-9.16.49-2.52,2.27-4.36,5.11-6.39,7.77-2.34,3.07-5.26,4.73-9.15,4.63-2.02-.05-3.75.7-5.47,1.75-5.53,3.39-11.55,5.71-17.62,7.88-.17-.25-.34-.5-.51-.75Z"/>
</svg>